<svg fill="#000000" xmlns="http://www.w3.org/2000/svg"  viewBox="0 0 50 50" width="75px" height="75px" baseProfile="basic"><path d="M33.943,31.254c-0.373,1.046-2.206,2.058-3.027,2.129c-0.829,0.077-1.602,0.373-5.386-1.117	c-4.565-1.798-7.444-6.475-7.669-6.777c-0.225-0.294-1.827-2.431-1.827-4.635c0-2.212,1.159-3.294,1.566-3.744	c0.414-0.45,0.898-0.562,1.2-0.562c0.294,0,0.596,0,0.858,0.014c0.323,0.008,0.675,0.029,1.011,0.773	c0.4,0.885,1.271,3.104,1.383,3.329c0.112,0.225,0.19,0.492,0.035,0.786c-0.148,0.302-0.225,0.485-0.442,0.752	c-0.225,0.26-0.471,0.583-0.675,0.779c-0.225,0.225-0.456,0.471-0.196,0.919s1.159,1.917,2.492,3.104	c1.713,1.531,3.16,2.002,3.61,2.227c0.45,0.225,0.71,0.19,0.969-0.112c0.267-0.294,1.123-1.306,1.425-1.756	c0.294-0.45,0.596-0.373,1.004-0.225c0.414,0.148,2.619,1.236,3.069,1.461c0.45,0.225,0.744,0.337,0.858,0.519	C34.316,29.308,34.316,30.207,33.943,31.254z"/><path d="M25,8c9.389,0,17,7.611,17,17c0,9.389-7.611,17-17,17c-3.023,0-5.856-0.798-8.316-2.181l-8.537,1.904l2.185-8.158	C8.859,31.048,8,28.127,8,25C8,15.611,15.611,8,25,8z M25,41c8.802,0,16-7.198,16-16c0-8.802-7.198-16-16-16S9,16.198,9,25	c0,3.105,0.872,5.972,2.407,8.422l-1.862,6.961l7.3-1.623C19.24,40.198,22.003,41,25,41z"/></svg>